<?xml version="1.0" encoding="UTF-8" standalone="no"?>
<svg width="157px" height="354px" viewBox="0 0 157 354" version="1.1" xmlns="http://www.w3.org/2000/svg" xmlns:xlink="http://www.w3.org/1999/xlink" xmlns:sketch="http://www.bohemiancoding.com/sketch/ns">
    <!-- Generator: Sketch 3.3.3 (12072) - http://www.bohemiancoding.com/sketch -->
    <title>urinal</title>
    <desc>Created with Sketch.</desc>
    <defs></defs>
    <g id="Page-1" stroke="none" stroke-width="1" fill="none" fill-rule="evenodd" sketch:type="MSPage">
        <g id="urinal" sketch:type="MSLayerGroup" stroke="#000000">
            <rect id="Rectangle-5" stroke-width="2" fill="#FFFFFF" sketch:type="MSShapeGroup" x="60.2701422" y="320.889055" width="37.9478673" height="32.8275248" rx="12"></rect>
            <rect id="Rectangle-6" fill="#FFFFFF" sketch:type="MSShapeGroup" x="74.4075829" y="36.9309654" width="8.18483412" height="43.4964704"></rect>
            <rect id="Rectangle-8" fill="#FFFFFF" sketch:type="MSShapeGroup" x="42.4123223" y="16.4137624" width="27.5308057" height="7.38619308"></rect>
            <rect id="Rectangle-7" stroke-width="2" fill="#FFFFFF" sketch:type="MSShapeGroup" x="67.7109005" y="0" width="21.5781991" height="40.2137179"></rect>
            <rect id="Rectangle-9" stroke-width="2" fill="#FFFFFF" sketch:type="MSShapeGroup" x="30.507109" y="6.56550496" width="14.8815166" height="27.9033961"></rect>
            <rect id="Rectangle-10" stroke-width="2" fill="#FFFFFF" sketch:type="MSShapeGroup" x="67.7109005" y="75.5033071" width="21.5781991" height="19.6965149" rx="12"></rect>
            <path d="M129.558454,318.426991 L141.999532,318.426991 C150.279039,318.426991 157,311.710649 157,303.425622 L157,100.352933 C157,92.0756977 150.284062,85.3515645 141.999532,85.3515645 L15.0004679,85.3515645 C6.7209607,85.3515645 0,92.067906 0,100.352933 L0,303.425622 C0,311.702857 6.71593825,318.426991 15.0004679,318.426991 L25.2093183,318.426991 C29.2086343,325.868955 51.0453595,331.558001 77.3838863,331.558001 C103.722413,331.558001 125.559138,325.868955 129.558454,318.426991 Z" id="Rectangle-3" stroke-width="2" fill="#FFFFFF" sketch:type="MSShapeGroup"></path>
            <path d="M122.737323,299.551164 L133.843175,299.551164 C140.47346,299.551164 145.838863,294.175837 145.838863,287.545036 L145.838863,114.592143 C145.838863,107.956508 140.46821,102.586015 133.843175,102.586015 L24.6449765,102.586015 C18.0146922,102.586015 12.6492891,107.961342 12.6492891,114.592143 L12.6492891,287.545036 C12.6492891,294.180671 18.0199413,299.551164 24.6449765,299.551164 L33.5186011,299.551164 C44.6552267,308.135842 60.5206198,313.502862 78.1279621,313.502862 C95.7353044,313.502862 111.600697,308.135842 122.737323,299.551164 Z" id="Rectangle-3-Copy" stroke-width="2" sketch:type="MSShapeGroup"></path>
        </g>
    </g>
</svg>