<?xml version="1.0" encoding="UTF-8" standalone="no"?>
<!DOCTYPE svg PUBLIC "-//W3C//DTD SVG 1.1//EN" "http://www.w3.org/Graphics/SVG/1.1/DTD/svg11.dtd">
<svg width="100%" height="100%" viewBox="0 0 512 512" version="1.1" xmlns="http://www.w3.org/2000/svg" xmlns:xlink="http://www.w3.org/1999/xlink" xml:space="preserve" xmlns:serif="http://www.serif.com/" style="fill-rule:evenodd;clip-rule:evenodd;stroke-linejoin:round;stroke-miterlimit:2;">
    <path d="M111.8,62.2C170.2,105.9 233,194.7 256,242.4C279,194.8 341.8,106 400.2,62.2C442.3,30.6 510.5,6.2 510.5,84C510.5,99.5 501.6,214.5 496.4,233.2C478.2,298 412,314.6 353.1,304.5C456,322 482.2,380 425.6,438C318.2,548.2 271.3,410.4 259.3,375.1C257.6,370.2 256.7,367.3 256,367.3C255.3,367.3 254.4,370.3 252.7,375.1C240.7,410.4 193.7,548.2 86.4,438C29.9,380 56,322 158.9,304.5C100,314.6 33.8,298 15.7,233.1C10.4,214.4 1.5,99.4 1.5,83.9C1.5,6.1 69.7,30.5 111.8,62.1L111.8,62.2Z" style="fill:rgb(0,133,255);fill-rule:nonzero;"/>
</svg>
