<?xml version="1.0" encoding="UTF-8" standalone="no"?>
<svg  viewBox="0 0 175 472" version="1.1" xmlns="http://www.w3.org/2000/svg" xmlns:xlink="http://www.w3.org/1999/xlink" xmlns:sketch="http://www.bohemiancoding.com/sketch/ns" class="the-man">
    <title>man</title>
    <defs></defs>
    <g stroke="none" stroke-width="1" fill="none" fill-rule="evenodd" sketch:type="MSPage">
        <g class="man" sketch:type="MSLayerGroup">
            <path d="M116.659904,88.9373633 L58.329952,88.9373633 C26.1150756,88.9373633 0,112.173725 0,140.836423 L0,261.934227 C0,269.100142 6.52863389,274.908992 14.582488,274.908992 C22.6363421,274.908992 29.164976,269.100142 29.164976,261.934227 L29.164976,140.836423 L38.8866347,140.836423 L38.8866347,279.233914 L38.8866347,452.230778 C38.8866347,462.979169 48.6795855,471.692925 60.7603667,471.692925 C72.8411478,471.692925 82.6340987,462.979169 82.6340987,452.230778 L82.6340987,279.233914 L92.3557573,279.233914 L92.3557573,452.230778 C92.3557573,462.979169 102.149248,471.692925 114.229489,471.692925 C126.30973,471.692925 136.103221,462.979169 136.103221,452.230778 L136.103221,279.233914 L136.103221,140.836423 L145.82488,140.836423 L145.82488,261.934227 C145.82488,269.100142 152.353514,274.908992 160.407368,274.908992 C168.461222,274.908992 174.989856,269.100142 174.989856,261.934227 L174.989856,140.836423 C174.989856,112.173725 148.87478,88.9373633 116.659904,88.9373633 L116.659904,88.9373633 Z" id="Shape" sketch:type="MSShapeGroup"></path>
            <ellipse id="man-head" class="man" sketch:type="MSShapeGroup" cx="87.8498628" cy="39.3277666" rx="39.6029674" ry="39.3277666"></ellipse>
        </g>
    </g>
</svg>
